
<svg xmlns="http://www.w3.org/2000/svg" viewBox="0 0 64 64">
  <path d="M32 14 C27 10 16 9 9 10 L9 48 C16 47 27 48 32 52 C37 48 48 47 55 48 L55 10 C48 9 37 10 32 14 Z" fill="#0f5132"/>
  <line x1="32" y1="14" x2="32" y2="52" stroke="#f4e4b8" stroke-width="1.6"/>
  <line x1="14" y1="18" x2="26" y2="17" stroke="#f4e4b8" stroke-width="1.4"/>
  <line x1="14" y1="24" x2="26" y2="23" stroke="#f4e4b8" stroke-width="1.4"/>
  <line x1="14" y1="30" x2="26" y2="29" stroke="#f4e4b8" stroke-width="1.4"/>
  <line x1="14" y1="36" x2="26" y2="35" stroke="#f4e4b8" stroke-width="1.4"/>
  <line x1="38" y1="17" x2="50" y2="18" stroke="#f4e4b8" stroke-width="1.4"/>
  <line x1="38" y1="23" x2="50" y2="24" stroke="#f4e4b8" stroke-width="1.4"/>
  <line x1="38" y1="29" x2="50" y2="30" stroke="#f4e4b8" stroke-width="1.4"/>
  <line x1="38" y1="35" x2="50" y2="36" stroke="#f4e4b8" stroke-width="1.4"/>
</svg>